<svg width="119" height="34" viewBox="0 0 119 34" fill="none" xmlns="http://www.w3.org/2000/svg">
<rect width="119" height="34" rx="6" fill="#015FC7"/>
<path d="M29.55 26V25.75L30.075 25.55C30.425 25.4167 30.6417 25.2583 30.725 25.075C30.825 24.875 30.875 24.6083 30.875 24.275V11.225C30.875 10.8917 30.825 10.625 30.725 10.425C30.625 10.225 30.4083 10.0667 30.075 9.95L29.55 9.75V9.5H35.925V9.75L35.475 9.95C35.1583 10.0667 34.9417 10.2333 34.825 10.45C34.7083 10.65 34.65 10.9167 34.65 11.25V25.5H38.5C39.1167 25.5 39.5667 25.35 39.85 25.05C40.15 24.75 40.4333 24.3167 40.7 23.75L41.675 21.65H41.925L41.7 26H29.55ZM49.326 26.375C48.0593 26.375 46.9593 26.1167 46.026 25.6C45.0926 25.0667 44.3676 24.3167 43.851 23.35C43.351 22.3833 43.101 21.25 43.101 19.95C43.101 18.65 43.3676 17.525 43.901 16.575C44.451 15.625 45.1926 14.8917 46.126 14.375C47.076 13.8583 48.1426 13.6 49.326 13.6C50.5093 13.6 51.5676 13.8583 52.501 14.375C53.4343 14.875 54.1676 15.6 54.701 16.55C55.251 17.5 55.526 18.6333 55.526 19.95C55.526 21.2667 55.2676 22.4083 54.751 23.375C54.251 24.325 53.5343 25.0667 52.601 25.6C51.6843 26.1167 50.5926 26.375 49.326 26.375ZM49.326 25.875C49.9093 25.875 50.376 25.7083 50.726 25.375C51.076 25.0417 51.326 24.45 51.476 23.6C51.6426 22.75 51.726 21.55 51.726 20C51.726 18.4333 51.6426 17.225 51.476 16.375C51.326 15.525 51.076 14.9333 50.726 14.6C50.376 14.2667 49.9093 14.1 49.326 14.1C48.7426 14.1 48.2676 14.2667 47.901 14.6C47.551 14.9333 47.2926 15.525 47.126 16.375C46.976 17.225 46.901 18.4333 46.901 20C46.901 21.55 46.976 22.75 47.126 23.6C47.2926 24.45 47.551 25.0417 47.901 25.375C48.2676 25.7083 48.7426 25.875 49.326 25.875ZM62.074 21.675C60.924 21.675 59.949 21.4833 59.149 21.1V21.95C59.149 22.4667 59.4074 22.775 59.924 22.875L64.624 23.75C65.4074 23.9 66.1157 24.1 66.749 24.35C67.3824 24.5833 67.8907 24.925 68.274 25.375C68.6574 25.8083 68.849 26.4083 68.849 27.175C68.849 27.9917 68.5824 28.7417 68.049 29.425C67.5157 30.125 66.724 30.6833 65.674 31.1C64.6407 31.5333 63.349 31.75 61.799 31.75C60.4657 31.75 59.4074 31.6083 58.624 31.325C57.8407 31.0583 57.2824 30.7083 56.949 30.275C56.6324 29.8417 56.474 29.3833 56.474 28.9C56.474 28.3 56.674 27.6917 57.074 27.075C57.4907 26.475 57.999 25.9917 58.599 25.625C58.0824 25.425 57.7074 25.1667 57.474 24.85C57.2407 24.5333 57.124 24.1917 57.124 23.825C57.124 23.4917 57.2074 23.1833 57.374 22.9C57.5574 22.6 57.774 22.3 58.024 22L58.849 20.95C57.6324 20.25 57.024 19.15 57.024 17.65C57.024 16.45 57.449 15.475 58.299 14.725C59.1657 13.975 60.4324 13.6 62.099 13.6C62.949 13.6 63.6907 13.7 64.324 13.9C64.974 14.1 65.5074 14.3833 65.924 14.75C66.4574 14.6667 66.9574 14.5333 67.424 14.35C67.9074 14.15 68.3407 13.8833 68.724 13.55L69.074 13.8V15.075H66.249C66.849 15.7417 67.149 16.6 67.149 17.65C67.149 18.8167 66.7157 19.7833 65.849 20.55C64.999 21.3 63.7407 21.675 62.074 21.675ZM62.049 21.175C62.7157 21.175 63.199 20.9 63.499 20.35C63.8157 19.8 63.974 18.8833 63.974 17.6C63.974 16.3167 63.8157 15.4167 63.499 14.9C63.199 14.3667 62.7324 14.1 62.099 14.1C61.4824 14.1 61.0157 14.375 60.699 14.925C60.3824 15.4583 60.224 16.3667 60.224 17.65C60.224 18.9333 60.3657 19.8417 60.649 20.375C60.949 20.9083 61.4157 21.175 62.049 21.175ZM58.324 28.1C58.324 29.0833 58.624 29.825 59.224 30.325C59.8407 30.825 60.8074 31.075 62.124 31.075C63.5074 31.075 64.549 30.85 65.249 30.4C65.949 29.95 66.299 29.3167 66.299 28.5C66.299 28.0333 66.124 27.6583 65.774 27.375C65.4407 27.0917 64.8657 26.875 64.049 26.725L59.524 25.875C59.3907 25.8417 59.2574 25.8083 59.124 25.775C58.8907 26.1083 58.699 26.4833 58.549 26.9C58.399 27.3333 58.324 27.7333 58.324 28.1ZM72.9053 12.3C72.3386 12.3 71.8553 12.125 71.4553 11.775C71.0719 11.4083 70.8803 10.95 70.8803 10.4C70.8803 9.83333 71.0719 9.375 71.4553 9.025C71.8553 8.675 72.3386 8.5 72.9053 8.5C73.4719 8.5 73.9469 8.675 74.3303 9.025C74.7136 9.375 74.9053 9.83333 74.9053 10.4C74.9053 10.95 74.7136 11.4083 74.3303 11.775C73.9469 12.125 73.4719 12.3 72.9053 12.3ZM69.9553 26V25.75L70.3053 25.65C70.6386 25.55 70.8636 25.4 70.9803 25.2C71.1136 25 71.1803 24.7333 71.1803 24.4V16.575C71.1803 16.225 71.1136 15.9667 70.9803 15.8C70.8636 15.6167 70.6386 15.4917 70.3053 15.425L69.9553 15.35V15.1L74.5303 13.625L74.7803 13.875L74.7053 17.425V24.425C74.7053 24.7583 74.7636 25.025 74.8803 25.225C75.0136 25.425 75.2386 25.575 75.5553 25.675L75.8053 25.75V26H69.9553ZM76.9121 26V25.75L77.2621 25.65C77.8454 25.4833 78.1371 25.075 78.1371 24.425V16.6C78.1371 16.2333 78.0788 15.9667 77.9621 15.8C77.8454 15.6167 77.6204 15.4917 77.2871 15.425L76.9121 15.325V15.075L81.1871 13.625L81.4371 13.875L81.6371 15.375C82.2204 14.8583 82.8788 14.4333 83.6121 14.1C84.3454 13.7667 85.0704 13.6 85.7871 13.6C86.8871 13.6 87.7288 13.9 88.3121 14.5C88.9121 15.1 89.2121 16.0167 89.2121 17.25V24.45C89.2121 25.1 89.5288 25.5083 90.1621 25.675L90.3871 25.75V26H84.4871V25.75L84.8121 25.65C85.3954 25.4667 85.6871 25.0583 85.6871 24.425V16.45C85.6871 15.3833 85.1538 14.85 84.0871 14.85C83.3538 14.85 82.5538 15.2167 81.6871 15.95V24.45C81.6871 25.1 81.9788 25.5083 82.5621 25.675L82.7871 25.75V26H76.9121Z" fill="white"/>
</svg>
