<svg width="790" height="552" viewBox="0 0 790 552" fill="none" xmlns="http://www.w3.org/2000/svg">
<g clip-path="url(#clip0_10_229)">
<path d="M157.402 552C244.333 552 314.805 546.625 314.805 539.994C314.805 533.364 244.333 527.988 157.402 527.988C70.4714 527.988 0 533.364 0 539.994C0 546.625 70.4714 552 157.402 552Z" fill="#E6E6E6"/>
<path d="M120.315 122.479C147.708 110.778 181.826 118.192 215.146 123.337C215.456 117.106 219.215 109.523 215.278 105.175C210.495 99.8941 210.935 94.3448 213.813 88.7637C221.173 74.4917 210.628 59.3056 199.981 46.6785C197.582 43.8389 194.549 41.6077 191.129 40.1662C187.71 38.7248 184 38.1137 180.301 38.3827L160.578 39.7975C155.779 40.1417 151.199 41.9498 147.451 44.9797C143.703 48.0096 140.965 52.1169 139.605 56.7519V56.7519C134.896 63.1842 132.375 69.5987 133.962 75.9798C126.908 80.8209 125.723 86.6647 128.893 93.2526C131.58 97.4005 131.552 101.438 128.77 105.364C125.118 110.369 122.32 115.95 120.492 121.878L120.315 122.479Z" fill="#2F2E41"/>
<path d="M771.28 477.195H212.982C208.017 477.195 203.256 475.214 199.745 471.689C196.234 468.163 194.262 463.381 194.262 458.395C396.645 434.773 595.224 434.773 790 458.395C790 463.381 788.028 468.163 784.517 471.689C781.006 475.214 776.245 477.195 771.28 477.195Z" fill="#2F2E41"/>
<path d="M790 459.501L194.262 458.395L263.306 341.723L263.636 341.17V84.0372C263.636 80.9162 264.248 77.8257 265.437 74.9421C266.626 72.0586 268.37 69.4386 270.567 67.2317C272.765 65.0248 275.373 63.2742 278.245 62.08C281.116 60.8857 284.193 60.2712 287.301 60.2715H693.658C696.766 60.2712 699.843 60.8857 702.714 62.08C705.585 63.2742 708.194 65.0248 710.392 67.2317C712.589 69.4386 714.332 72.0586 715.521 74.9421C716.71 77.8257 717.322 80.9162 717.322 84.0372V342.939L790 459.501Z" fill="#3F3D56"/>
<path d="M286.761 76.8599C284.718 76.8622 282.758 77.6786 281.313 79.1298C279.868 80.5811 279.055 82.5488 279.053 84.6012V319.052C279.055 321.104 279.868 323.072 281.313 324.523C282.758 325.974 284.718 326.791 286.761 326.793H697.501C699.544 326.79 701.504 325.974 702.949 324.523C704.394 323.072 705.207 321.104 705.209 319.052V84.6012C705.207 82.5488 704.394 80.5812 702.949 79.1299C701.504 77.6787 699.545 76.8623 697.501 76.8599H286.761Z" fill="white"/>
<path d="M288.482 357.758C287.851 357.759 287.233 357.942 286.701 358.284C286.169 358.626 285.746 359.113 285.481 359.689L264.207 406.137C263.975 406.642 263.874 407.198 263.912 407.753C263.95 408.308 264.127 408.845 264.426 409.313C264.725 409.782 265.136 410.167 265.622 410.434C266.108 410.701 266.653 410.841 267.207 410.841H714.6C715.164 410.841 715.717 410.697 716.209 410.421C716.701 410.146 717.115 409.749 717.411 409.268C717.706 408.786 717.875 408.237 717.9 407.672C717.925 407.107 717.806 406.545 717.554 406.04L694.43 359.592C694.157 359.04 693.736 358.575 693.214 358.251C692.691 357.927 692.09 357.756 691.476 357.758H288.482Z" fill="#2F2E41"/>
<path d="M490.479 72.9893C493.216 72.9893 495.435 70.7612 495.435 68.0127C495.435 65.2643 493.216 63.0362 490.479 63.0362C487.743 63.0362 485.524 65.2643 485.524 68.0127C485.524 70.7612 487.743 72.9893 490.479 72.9893Z" fill="white"/>
<path d="M446.504 419.688C445.778 419.689 445.072 419.93 444.496 420.374C443.92 420.817 443.505 421.439 443.315 422.143L437.978 442.049C437.846 442.541 437.829 443.057 437.927 443.556C438.026 444.056 438.237 444.526 438.546 444.93C438.854 445.334 439.251 445.662 439.706 445.887C440.16 446.113 440.661 446.23 441.168 446.23H542.656C543.183 446.23 543.702 446.104 544.17 445.861C544.638 445.619 545.042 445.267 545.347 444.837C545.653 444.406 545.851 443.908 545.926 443.384C546.001 442.861 545.95 442.327 545.777 441.827L538.916 421.921C538.691 421.269 538.27 420.704 537.71 420.304C537.151 419.904 536.481 419.689 535.795 419.688H446.504Z" fill="#2F2E41"/>
<path d="M717.322 337.299V341.722H263.306L263.648 341.17V337.299H717.322Z" fill="#2F2E41"/>
<path d="M704.659 154.826C747.23 154.826 781.741 120.167 781.741 77.4129C781.741 34.6589 747.23 0 704.659 0C662.087 0 627.576 34.6589 627.576 77.4129C627.576 120.167 662.087 154.826 704.659 154.826Z" fill="#015FC7"/>
<path d="M736.593 111.143H672.725C671.557 111.142 670.437 110.675 669.611 109.846C668.785 109.017 668.321 107.892 668.32 106.719V68.0128C668.321 66.8399 668.786 65.7155 669.611 64.8862C670.437 64.0569 671.557 63.5904 672.725 63.5892H736.593C737.761 63.5904 738.88 64.0569 739.706 64.8862C740.532 65.7155 740.996 66.8399 740.998 68.0128V106.719C740.996 107.892 740.532 109.017 739.706 109.846C738.88 110.675 737.761 111.142 736.593 111.143ZM672.725 68.0128V106.719H736.596L736.593 68.0128L672.725 68.0128Z" fill="white"/>
<path d="M724.48 68.0128H684.837V50.3184C684.837 37.5023 693.174 28.2004 704.659 28.2004C716.144 28.2004 724.48 37.5023 724.48 50.3184L724.48 68.0128ZM689.242 63.5892H720.075V50.3184C720.075 39.9003 713.736 32.624 704.659 32.624C695.582 32.624 689.242 39.9004 689.242 50.3184L689.242 63.5892Z" fill="white"/>
<path d="M704.659 90.6837C707.091 90.6837 709.063 88.7031 709.063 86.2601C709.063 83.817 707.091 81.8365 704.659 81.8365C702.226 81.8365 700.254 83.817 700.254 86.2601C700.254 88.7031 702.226 90.6837 704.659 90.6837Z" fill="white"/>
<path d="M650.848 247.27H333.414C331.856 247.268 330.361 246.645 329.259 245.539C328.157 244.432 327.537 242.931 327.536 241.366V162.287C327.537 160.722 328.157 159.221 329.259 158.114C330.361 157.008 331.856 156.385 333.414 156.383H650.848C652.407 156.385 653.901 157.008 655.003 158.114C656.105 159.221 656.725 160.722 656.727 162.287V241.366C656.725 242.931 656.105 244.432 655.003 245.539C653.901 246.645 652.407 247.268 650.848 247.27V247.27ZM333.414 158.745C332.479 158.746 331.582 159.119 330.921 159.783C330.26 160.447 329.888 161.348 329.887 162.287V241.366C329.888 242.305 330.26 243.206 330.921 243.87C331.582 244.534 332.479 244.907 333.414 244.908H650.848C651.784 244.907 652.68 244.534 653.341 243.87C654.003 243.206 654.374 242.305 654.375 241.366V162.287C654.374 161.348 654.003 160.447 653.341 159.783C652.68 159.119 651.784 158.746 650.848 158.745L333.414 158.745Z" fill="#E6E6E6"/>
<path d="M382.737 222.84C395.962 222.84 406.682 212.074 406.682 198.792C406.682 185.511 395.962 174.744 382.737 174.744C369.512 174.744 358.791 185.511 358.791 198.792C358.791 212.074 369.512 222.84 382.737 222.84Z" fill="#E6E6E6"/>
<path d="M438.04 182.76C437.515 182.759 436.995 182.862 436.51 183.063C436.026 183.264 435.585 183.559 435.214 183.932C434.842 184.304 434.548 184.746 434.347 185.233C434.146 185.72 434.042 186.241 434.042 186.768C434.042 187.295 434.146 187.817 434.347 188.303C434.548 188.79 434.842 189.232 435.214 189.604C435.585 189.977 436.026 190.272 436.51 190.473C436.995 190.674 437.515 190.777 438.04 190.776H626.183C627.241 190.776 628.257 190.354 629.005 189.602C629.753 188.851 630.174 187.831 630.174 186.768C630.174 185.705 629.753 184.686 629.005 183.934C628.257 183.182 627.241 182.76 626.183 182.76H438.04Z" fill="#E6E6E6"/>
<path d="M438.039 206.808C436.981 206.808 435.966 207.23 435.217 207.982C434.469 208.734 434.049 209.753 434.049 210.816C434.049 211.879 434.469 212.899 435.217 213.65C435.966 214.402 436.981 214.824 438.039 214.824H518.998C520.056 214.824 521.072 214.402 521.82 213.65C522.568 212.899 522.989 211.879 522.989 210.816C522.989 209.753 522.568 208.734 521.82 207.982C521.072 207.23 520.056 206.808 518.998 206.808H438.039Z" fill="#E6E6E6"/>
<path d="M262.525 208.43L203.845 239.76L203.102 213.651C222.255 210.44 240.477 204.85 257.326 195.748L263.463 180.521C264.131 178.861 265.218 177.405 266.617 176.295C268.015 175.185 269.677 174.46 271.439 174.189C273.201 173.919 275.002 174.114 276.667 174.754C278.331 175.394 279.801 176.458 280.933 177.841V177.841C282.588 179.865 283.416 182.445 283.247 185.059C283.079 187.672 281.928 190.124 280.028 191.917L262.525 208.43Z" fill="#FFB8B8"/>
<path d="M119.146 389.322C118.718 387.745 118.627 386.096 118.879 384.481C119.131 382.866 119.721 381.324 120.61 379.954L133.5 360.087C136.549 355.388 141.227 351.994 146.627 350.563C152.027 349.132 157.764 349.767 162.724 352.344V352.344C157.307 361.605 158.062 369.729 164.595 376.79C154.453 381.762 145.079 388.18 136.765 395.844C135.247 396.883 133.503 397.543 131.68 397.769C129.857 397.994 128.006 397.779 126.282 397.141C124.559 396.503 123.012 395.461 121.77 394.1C120.529 392.74 119.629 391.102 119.146 389.322V389.322Z" fill="#2F2E41"/>
<path d="M265.198 363.345C263.247 366.61 260.494 369.317 257.202 371.205C253.91 373.094 250.189 374.101 246.398 374.13L160.763 374.781L157.049 353.148L194.931 341.958L162.992 317.341L197.903 276.313L261.312 335.666C265.018 339.135 267.426 343.777 268.133 348.815C268.841 353.853 267.804 358.982 265.198 363.345V363.345Z" fill="#DDDBFF"/>
<path d="M147.393 511.294H127.338C109.331 387.336 91.0018 263.031 145.165 216.635L209.044 227.079L200.874 281.535L165.22 322.563L147.393 511.294Z" fill="#DDDBFF"/>
<path d="M165.022 539.374C163.452 539.804 161.81 539.895 160.202 539.642C158.594 539.389 157.058 538.797 155.695 537.905L133.919 534.965C129.24 531.903 125.86 527.205 124.435 521.782C123.01 516.359 123.641 510.598 126.207 505.616C135.429 511.056 143.518 510.297 150.548 503.736C155.515 513.808 163.699 513.194 171.515 521.68C172.55 523.204 173.207 524.955 173.432 526.786C173.657 528.617 173.443 530.475 172.807 532.206C172.172 533.938 171.134 535.491 169.78 536.738C168.426 537.985 166.795 538.889 165.022 539.374V539.374Z" fill="#2F2E41"/>
<path d="M194.931 133.832L157.792 124.881C163.96 112.201 164.468 98.0915 161.506 83.1064L186.761 82.3604C187.552 100.995 189.946 118.404 194.931 133.832Z" fill="#FFB8B8"/>
<path d="M205.138 249.54C178.102 268.042 158.999 250.173 144.422 222.603C146.447 205.733 143.167 185.544 137.093 163.608C134.391 153.932 135.4 143.591 139.92 134.626C144.439 125.661 152.142 118.724 161.506 115.183V115.183L193.446 128.611C220.566 150.812 225.904 174.86 215.729 200.224L205.138 249.54Z" fill="#015FC7"/>
<path d="M127.338 152.482L97.6262 168.147L150.364 199.478L157.702 217.656C158.192 218.87 158.431 220.17 158.404 221.479C158.376 222.788 158.084 224.078 157.544 225.27C157.005 226.461 156.229 227.53 155.265 228.411C154.3 229.292 153.167 229.967 151.935 230.393V230.393C150.534 230.878 149.04 231.031 147.571 230.84C146.101 230.649 144.696 230.118 143.464 229.29C142.233 228.462 141.209 227.359 140.473 226.067C139.737 224.776 139.309 223.33 139.222 221.845L138.48 209.176L71.4503 186.961C69.1919 186.213 67.1327 184.958 65.4287 183.292C63.7247 181.626 62.4205 179.592 61.615 177.345V177.345C60.4408 174.069 60.381 170.495 61.445 167.182C62.509 163.868 64.6368 161.003 67.4953 159.033L121.395 121.897L127.338 152.482Z" fill="#FFB8B8"/>
<path d="M157.049 155.466C144.658 150.012 133.39 155.936 119.167 160.687L116.939 121.151C131.061 113.592 144.526 111.553 157.049 117.421L157.049 155.466Z" fill="#015FC7"/>
<path d="M171.872 101.944C184.968 101.944 195.584 91.2824 195.584 78.1305C195.584 64.9786 184.968 54.3168 171.872 54.3168C158.776 54.3168 148.16 64.9786 148.16 78.1305C148.16 91.2824 158.776 101.944 171.872 101.944Z" fill="#FFB8B8"/>
<path d="M200.24 75.1258C176.763 77.4351 158.873 73.579 147.44 62.5997V53.7577H198.247L200.24 75.1258Z" fill="#2F2E41"/>
</g>
<defs>
<clipPath id="clip0_10_229">
<rect width="790" height="552" fill="white"/>
</clipPath>
</defs>
</svg>
