<svg width="140" height="34" viewBox="0 0 140 34" fill="none" xmlns="http://www.w3.org/2000/svg">
<rect width="140" height="34" rx="5" fill="#015FC7"/>
<path d="M52.1 26.075L46.75 11.175C46.6333 10.8417 46.475 10.5833 46.275 10.4C46.0917 10.2 45.8333 10.05 45.5 9.95L44.9 9.75V9.5H52.1V9.75L51.325 9.975C50.9417 10.075 50.725 10.25 50.675 10.5C50.6417 10.75 50.6833 11.0583 50.8 11.425L54.5 22.4L58.225 11.4C58.3583 11.0167 58.4167 10.7 58.4 10.45C58.4 10.2 58.2083 10.025 57.825 9.925L57.175 9.75V9.5H60.675V9.75L60 9.95C59.6833 10.0333 59.4583 10.1833 59.325 10.4C59.1917 10.6 59.0667 10.8667 58.95 11.2L53.95 26.075H52.1ZM65.3748 26.375C64.1081 26.375 63.0081 26.1167 62.0748 25.6C61.1415 25.0667 60.4165 24.3167 59.8998 23.35C59.3998 22.3833 59.1498 21.25 59.1498 19.95C59.1498 18.65 59.4165 17.525 59.9498 16.575C60.4998 15.625 61.2415 14.8917 62.1748 14.375C63.1248 13.8583 64.1915 13.6 65.3748 13.6C66.5581 13.6 67.6165 13.8583 68.5498 14.375C69.4831 14.875 70.2165 15.6 70.7498 16.55C71.2998 17.5 71.5748 18.6333 71.5748 19.95C71.5748 21.2667 71.3165 22.4083 70.7998 23.375C70.2998 24.325 69.5831 25.0667 68.6498 25.6C67.7331 26.1167 66.6415 26.375 65.3748 26.375ZM65.3748 25.875C65.9581 25.875 66.4248 25.7083 66.7748 25.375C67.1248 25.0417 67.3748 24.45 67.5248 23.6C67.6915 22.75 67.7748 21.55 67.7748 20C67.7748 18.4333 67.6915 17.225 67.5248 16.375C67.3748 15.525 67.1248 14.9333 66.7748 14.6C66.4248 14.2667 65.9581 14.1 65.3748 14.1C64.7915 14.1 64.3165 14.2667 63.9498 14.6C63.5998 14.9333 63.3415 15.525 63.1748 16.375C63.0248 17.225 62.9498 18.4333 62.9498 20C62.9498 21.55 63.0248 22.75 63.1748 23.6C63.3415 24.45 63.5998 25.0417 63.9498 25.375C64.3165 25.7083 64.7915 25.875 65.3748 25.875ZM77.3252 26.375C76.2585 26.375 75.4252 26.1083 74.8252 25.575C74.2419 25.0417 73.9502 24.1917 73.9502 23.025V14.475H72.2252V14.225L72.8252 14.125C73.3419 14.0083 73.7835 13.8417 74.1502 13.625C74.5335 13.4083 74.9085 13.1167 75.2752 12.75L77.3252 10.475H77.5752L77.5002 13.975H80.3002V14.475H77.4752V23.475C77.4752 24.0583 77.6002 24.5 77.8502 24.8C78.1169 25.1 78.4502 25.25 78.8502 25.25C79.2002 25.25 79.5085 25.1667 79.7752 25C80.0419 24.8167 80.3085 24.575 80.5752 24.275L80.8252 24.525C80.4919 25.0917 80.0335 25.5417 79.4502 25.875C78.8669 26.2083 78.1585 26.375 77.3252 26.375ZM87.8102 13.6C88.8935 13.6 89.8185 13.825 90.5852 14.275C91.3518 14.7083 91.9352 15.3083 92.3352 16.075C92.7518 16.825 92.9602 17.6833 92.9602 18.65C92.9602 18.8333 92.9518 19.025 92.9352 19.225C92.9185 19.4083 92.8852 19.575 92.8352 19.725H85.3852C85.4018 21.525 85.7185 22.825 86.3352 23.625C86.9685 24.4083 87.9018 24.8 89.1352 24.8C89.9685 24.8 90.6435 24.6667 91.1602 24.4C91.6768 24.1333 92.1602 23.7417 92.6102 23.225L92.8602 23.45C92.3435 24.3667 91.6518 25.0833 90.7852 25.6C89.9352 26.1167 88.9102 26.375 87.7102 26.375C86.5268 26.375 85.4768 26.125 84.5602 25.625C83.6435 25.1083 82.9268 24.375 82.4102 23.425C81.8935 22.475 81.6352 21.3417 81.6352 20.025C81.6352 18.6583 81.9352 17.5 82.5352 16.55C83.1352 15.5833 83.9018 14.85 84.8352 14.35C85.7852 13.85 86.7768 13.6 87.8102 13.6ZM87.7352 14.1C87.2518 14.1 86.8352 14.25 86.4852 14.55C86.1518 14.8333 85.8852 15.35 85.6852 16.1C85.5018 16.8333 85.4018 17.875 85.3852 19.225H89.6602C89.8268 17.4083 89.7602 16.1 89.4602 15.3C89.1602 14.5 88.5852 14.1 87.7352 14.1Z" fill="white"/>
</svg>
